<svg width="16" height="16" viewBox="0 0 16 16" fill="none" xmlns="http://www.w3.org/2000/svg">

<!-- <path d="M10.54 2.65667H12.0007V0.112667C11.7487 0.078 10.882 0 9.87267 0C7.76667 0 6.324 1.32467 6.324 3.75933V6H4V8.844H6.324V16H9.17333V8.84467H11.4033L11.7573 6.00067H9.17267V4.04133C9.17333 3.21933 9.39467 2.65667 10.54 2.65667V2.65667Z" fill="white"/> -->

<!-- <path d="M39.155 13.946c-.214-.604-.538-1.212-.999-1.869.848-3.154.253-5.792.225-5.915l-.365-1.564-1.606.019c-.15.002-3.48.063-6.724 1.955a29.635 29.635 0 0 0-11.371 0c-3.243-1.892-6.573-1.953-6.724-1.955l-1.607-.02-.365 1.564c-.028.123-.623 2.761.225 5.915-.461.657-.785 1.266-.999 1.869-1.187 3.356-1.187 6.76.001 10.117 1.07 3.023 4.697 6.116 7.225 6.862.851.251 1.704.422 2.558.545A5.236 5.236 0 0 0 18 34.004v1.281c-.062.036-.127.065-.187.108-.289.211-2.869 1.967-5.505.09-.93-.946-1.386-1.639-1.826-2.309-.988-1.5-1.841-2.586-4.588-3.96a2 2 0 1 0-1.789 3.579c1.991.995 2.341 1.525 3.035 2.581.515.781 1.155 1.754 2.445 3.044l.215.186c1.692 1.27 3.447 1.723 5.053 1.723A9.286 9.286 0 0 0 18 39.76v4.253h4V34.004c0-1.103.897-2 2-2s2 .897 2 2v10h4v-10c0-.955-.23-1.803-.628-2.534a18.287 18.287 0 0 0 2.558-.545c2.527-.746 6.154-3.839 7.226-6.863 1.187-3.357 1.187-6.76-.001-10.116zm-3.77 8.781c-.591 1.667-3.167 3.942-4.588 4.362-4.509 1.331-9.083 1.332-13.594 0-1.421-.42-3.997-2.695-4.587-4.361-.875-2.472-.853-4.969-.001-7.447.485-1.41 1.724-2.427 1.724-2.427l-.398-1.08a9.24 9.24 0 0 1-.548-2.886c.992.233 2.247.664 3.416 1.459l.716.487.845-.188a25.659 25.659 0 0 1 11.262 0l.845.188.716-.487c1.167-.794 2.423-1.225 3.415-1.458a9.169 9.169 0 0 1-.547 2.885l-.398 1.08s1.093.81 1.724 2.427c.951 2.441.872 4.976-.002 7.446z" fill="white"/> -->
<!-- <path d="M18.561 13.158c-1.102 0-2.135-.467-3.074-1.227l.228-1.076.008-.042c.207-1.143.849-3.06 2.839-3.06 1.492 0 2.703 1.212 2.703 2.703-.001 1.489-1.212 2.702-2.704 2.702zm0-8.14c-2.539 0-4.51 1.649-5.31 4.366-1.22-1.834-2.148-4.036-2.687-5.892H7.828v7.112c-.002 1.406-1.141 2.546-2.547 2.548-1.405-.002-2.543-1.143-2.545-2.548V3.492H0v7.112c0 2.914 2.37 5.303 5.281 5.303 2.913 0 5.283-2.389 5.283-5.303v-1.19c.529 1.107 1.182 2.229 1.974 3.221l-1.673 7.873h2.797l1.213-5.71c1.063.679 2.285 1.109 3.686 1.109 3 0 5.439-2.452 5.439-5.45 0-3-2.439-5.439-5.439-5.439z" fill="white"/> -->
<path d="m 10.2805,7.579 c -0.551,0 -1.0675,-0.2335 -1.537,-0.6135 l 0.114,-0.538 0.004,-0.021 c 0.1035,-0.5715 0.4245,-1.53 1.4195,-1.53 0.746,0 1.3515,0.606 1.3515,1.3515 -5e-4,0.7445 -0.606,1.351 -1.352,1.351 z m 0,-4.07 C 9.011,3.509 8.0255,4.3335 7.6255,5.692 7.0155,4.775 6.5515,3.674 6.282,2.746 l -1.368,0 0,3.556 C 4.913,7.005 4.3435,7.575 3.6405,7.576 2.938,7.575 2.369,7.0045 2.368,6.302 l 0,-3.556 -1.368,0 0,3.556 C 1,7.759 2.185,8.9535 3.6405,8.9535 5.097,8.9535 6.282,7.759 6.282,6.302 l 0,-0.595 c 0.2645,0.5535 0.591,1.1145 0.987,1.6105 l -0.8365,3.9365 1.3985,0 0.6065,-2.855 C 8.969,8.7385 9.58,8.9535 10.2805,8.9535 11.7805,8.9535 13,7.7275 13,6.2285 13,4.7285 11.7805,3.509 10.2805,3.509 Z"  fill="white"/>
</svg>
